<svg xmlns="http://www.w3.org/2000/svg" viewBox="18121 -2842 310.301 53.283">
  <defs>
    <style>
      .cls-1 {
        fill: #fff;
      }
    </style>
  </defs>
  <g id="Group_1730" data-name="Group 1730" transform="translate(18121 -2842)">
    <g id="Group_1728" data-name="Group 1728">
      <path id="Path_2358" data-name="Path 2358" class="cls-1" d="M16.658,4.485l-5.125,8.542v5.766c.534,1.388,2.029,1.6,3.524,1.6v.854H5.019v-.854c1.388-.107,3.1-.32,3.631-1.175v-5.98L3.524,4.592A4.093,4.093,0,0,0,0,2.456V1.708H8.649v.854a4.938,4.938,0,0,0-2.67.747l4.805,8.329,4.7-8.329a5.206,5.206,0,0,0-2.776-.854V1.708h7.368v.854A3.546,3.546,0,0,0,16.658,4.485ZM26.7,21.57a2.423,2.423,0,0,1-2.563-1.922,5.8,5.8,0,0,1-3.737,1.922,2.841,2.841,0,0,1-3.1-2.776,4.96,4.96,0,0,1,.641-2.456l6.086-2.242V11.853c0-1.388-.641-2.67-2.029-2.67-.854,0-1.6,1.068-1.708,2.563l-2.776.427v-.32a6.149,6.149,0,0,1,5.446-3.844c2.776,0,3.844,1.495,3.844,3.737L26.7,18.259c0,1.281.641,1.6,1.281,1.6.534,0,.961-.32,1.6-.854v.854A4.261,4.261,0,0,1,26.7,21.57Zm-6.086-5.019a7.265,7.265,0,0,0-.214,1.6,1.615,1.615,0,0,0,1.495,1.815,3.073,3.073,0,0,0,2.242-.961V14.842C23.385,15.27,21.463,16.124,20.609,16.551Zm9.4,4.7V20.5c1.388-.107,1.815-.427,2.029-.961V3.524c0-1.068-.107-1.495-2.242-1.708V1.388L35.344,0l.214.534L34.7,1.6V19.648c.32.641.854.854,2.136.961v.747H30.005Zm14.2.32a5.821,5.821,0,0,1-5.766-6.086c0-4.378,2.669-7.368,6.514-7.368,3.1,0,4.7,1.708,4.7,4.485v.534l-8.329-.107a6.148,6.148,0,0,0-.107,1.6c0,3.1,1.922,5.232,4.592,5.232,1.6,0,2.349-.534,3.631-1.6l.427.747C48.158,20.5,46.77,21.57,44.207,21.57Zm.32-12.6c-1.495,0-2.67,1.281-2.99,3.2l5.446-.107C46.876,10.464,45.915,8.97,44.527,8.97Z"/>
    </g>
    <g id="Group_1729" data-name="Group 1729" transform="translate(57.448 8.222)">
      <path id="Path_2359" data-name="Path 2359" class="cls-1" d="M69.622,8.434a2.706,2.706,0,0,0-1.922.854v6.407c0,3.737-2.349,5.339-5.446,5.339-3.2,0-5.232-1.815-5.232-4.912V9.181c-.214-.427-1.068-.641-1.922-.747V7.9h6.193v.534c-.961.107-1.815.32-2.029.747v6.514c0,2.563,1.281,4.058,3.631,4.058,2.456,0,3.631-1.495,3.631-4.378V12.812c0-1.068-.107-2.776-.107-3.417a3.123,3.123,0,0,0-2.242-.854V7.9h5.446Z" transform="translate(-53.712 -7.686)"/>
      <path id="Path_2360" data-name="Path 2360" class="cls-1" d="M85.236,8.434a2.5,2.5,0,0,0-1.922.854v7.688c0,1.068,0,2.883.107,3.844H82.246l-7.795-9.61L73.6,9.929,73.7,11.1v4.592c0,1.068.107,2.67.107,3.524a2.933,2.933,0,0,0,2.242.854v.534H70.5v-.534a2.424,2.424,0,0,0,2.029-.854V11.958a22.34,22.34,0,0,0-.107-2.776A2.706,2.706,0,0,0,70.5,8.327V7.9h4.058l1.175,1.495L82.246,17.4V12.812c0-1.068-.107-2.776-.107-3.417A3.123,3.123,0,0,0,79.9,8.541V7.9h5.553v.534Z" transform="translate(-52.668 -7.686)"/>
      <path id="Path_2361" data-name="Path 2361" class="cls-1" d="M92.507,20.714H86.1V20.18c.961,0,1.922-.32,2.029-.747V9.181c-.107-.427-1.068-.641-2.029-.747V7.9h6.407v.534c-.961.107-1.922.32-2.029.747V19.432c.107.427,1.068.641,2.029.747Z" transform="translate(-51.61 -7.686)"/>
      <path id="Path_2362" data-name="Path 2362" class="cls-1" d="M107.715,8.434a2.567,2.567,0,0,0-2.136,1.175l-4.7,11.319H99.386L95.542,9.395c-.214-.641-1.281-.854-2.242-.961V7.9h6.514v.534c-.854.107-1.815.32-2.029.747l3.1,9.183,3.524-8.97c-.214-.534-1.175-.854-2.136-.961V7.9h5.446Z" transform="translate(-51.122 -7.686)"/>
      <path id="Path_2363" data-name="Path 2363" class="cls-1" d="M118.925,20.72H107.5v-.534c.961,0,2.349-.32,2.563-.961V9.188c-.107-.427-1.068-.641-1.922-.641V7.907h8.329a3.321,3.321,0,0,0,1.175-.107h.427v3.417h-.427c-.107-1.815-.747-2.242-2.349-2.242h-2.883V13.78h2.776c1.388,0,1.922,0,2.136-1.495h.534v4.164h-.534c-.107-1.6-.641-1.6-2.136-1.6h-2.776v4.378a.646.646,0,0,0,.534.641h3.2c1.388,0,2.242-.641,2.349-2.349h.534v3.2Z" transform="translate(-50.159 -7.693)"/>
      <path id="Path_2364" data-name="Path 2364" class="cls-1" d="M134.729,20.827h-2.136c-2.029,0-2.136.107-3.31-1.388-1.388-1.815-2.136-2.99-2.776-3.844h-2.029v3.524c.214.641,1.281.961,2.242,1.068v.534H120.1v-.534c.961,0,1.922-.214,2.136-.961V9.295c-.214-.427-1.175-.747-2.136-.747V7.907c2.242,0,3.631-.107,5.98-.107,3.31,0,4.805,1.068,4.805,3.31a4.068,4.068,0,0,1-2.563,3.417l2.776,3.737a9.193,9.193,0,0,0,1.495,1.495,7.14,7.14,0,0,0,2.029.534ZM125.866,8.654h-1.281v6.086h1.495c2.029,0,2.563-1.388,2.563-3.417A2.669,2.669,0,0,0,125.866,8.654Z" transform="translate(-49.305 -7.693)"/>
      <path id="Path_2365" data-name="Path 2365" class="cls-1" d="M139.264,21.048a8.906,8.906,0,0,1-3.844-.854l-.32-3.417h.534a5.482,5.482,0,0,0,1.6,2.563,5.2,5.2,0,0,0,2.349.961,2.284,2.284,0,0,0,2.563-2.242c0-1.495-.961-1.922-2.563-2.563-2.99-1.281-4.058-2.029-4.058-4.058,0-2.242,2.242-3.737,5.232-3.737a8.038,8.038,0,0,1,3.2.641v3.31h-.534a3.584,3.584,0,0,0-1.175-2.456,3.655,3.655,0,0,0-2.029-.747c-1.708,0-2.563,1.068-2.563,2.029,0,1.388.641,1.922,2.67,2.67,2.776,1.068,3.844,2.029,3.844,3.951C144.39,19.659,142.041,21.048,139.264,21.048Z" transform="translate(-48.288 -7.7)"/>
      <path id="Path_2366" data-name="Path 2366" class="cls-1" d="M152.007,20.714H145.6V20.18c.961,0,1.922-.32,2.029-.747V9.181c-.107-.427-1.068-.641-2.029-.747V7.9h6.407v.534c-.961.107-1.922.32-2.029.747V19.432c.107.427,1.068.641,2.029.747Z" transform="translate(-47.576 -7.686)"/>
      <path id="Path_2367" data-name="Path 2367" class="cls-1" d="M165.993,11.644h-.534A2.416,2.416,0,0,0,163,8.975h-2.136V19.119c.427.961,1.6,1.068,2.456,1.068v.534h-7.261v-.534c.961,0,2.242-.214,2.563-.854V8.975H156.49c-1.495,0-2.349.961-2.456,2.669H153.5V7.8h.534a3.006,3.006,0,0,0,1.175.107h9.183c.427,0,.961-.107,1.175-.107h.534v3.844Z" transform="translate(-47.04 -7.693)"/>
      <path id="Path_2368" data-name="Path 2368" class="cls-1" d="M180.061,8.434a2.755,2.755,0,0,0-2.349,1.495l-3.31,5.339v3.737c.427.961,1.388,1.068,2.349,1.068v.534H169.81v-.534c.961,0,2.136-.214,2.349-.747V15.481l-3.31-5.659A2.653,2.653,0,0,0,166.5,8.434V7.9h6.193v.534a2.754,2.754,0,0,0-1.709.534l2.99,5.232,2.99-5.125a2.34,2.34,0,0,0-1.708-.641V7.9h4.805v.534Z" transform="translate(-46.159 -7.686)"/>
      <path id="Path_2369" data-name="Path 2369" class="cls-1" d="M196.105,20.714H185V20.18c.854,0,2.029-.214,2.349-.961V9.181c-.107-.427-1.068-.641-1.922-.641V7.9h6.3v.534c-.854.107-1.922.32-2.136.747V19.753l3.631-.107c1.388,0,2.242-1.388,2.349-2.99h.534v4.058Z" transform="translate(-44.905 -7.686)"/>
      <path id="Path_2370" data-name="Path 2370" class="cls-1" d="M203.507,20.714H197.1V20.18c.961,0,1.922-.32,2.029-.747V9.181c-.107-.427-1.068-.641-2.029-.747V7.9h6.407v.534c-.961.107-1.922.32-2.029.747V19.432c.107.427,1.068.641,2.029.747Z" transform="translate(-44.084 -7.686)"/>
      <path id="Path_2371" data-name="Path 2371" class="cls-1" d="M211,20.72h-6.3v-.534c.961,0,2.242-.214,2.456-.961V9.188c-.107-.427-1.068-.641-2.029-.641V7.907c2.563,0,4.378-.107,5.98-.107,2.99,0,4.485,1.175,4.485,2.669,0,1.281-.534,2.136-2.349,2.883,1.922.534,2.99,1.815,2.99,3.2C216.232,19.439,214.31,20.72,211,20.72Zm-.641-12.066H209.4v4.592h2.883a2.673,2.673,0,0,0,.961-2.349C213.242,9.615,212.068,8.654,210.359,8.654Zm0,5.232H209.4v5.232c.214.641.747.854,1.708.854,1.815,0,2.776-1.388,2.776-3.31C213.776,14.954,212.068,13.886,210.359,13.886Z" transform="translate(-43.569 -7.693)"/>
      <path id="Path_2372" data-name="Path 2372" class="cls-1" d="M231.529,20.827h-2.136c-2.029,0-2.136.107-3.31-1.388-1.388-1.815-2.136-2.99-2.776-3.844h-2.029v3.524c.214.641,1.281.961,2.242,1.068v.534H216.9v-.534c.961,0,1.922-.214,2.136-.961V9.295c-.214-.427-1.175-.747-2.136-.747V7.907c2.242,0,3.631-.107,5.98-.107,3.31,0,4.805,1.068,4.805,3.31a4.068,4.068,0,0,1-2.563,3.417l2.776,3.737a9.192,9.192,0,0,0,1.495,1.495,7.14,7.14,0,0,0,2.029.534ZM222.666,8.654h-1.281v6.086h1.495c2.029,0,2.563-1.388,2.563-3.417A2.669,2.669,0,0,0,222.666,8.654Z" transform="translate(-42.742 -7.693)"/>
      <path id="Path_2373" data-name="Path 2373" class="cls-1" d="M245.609,20.72h-6.193v-.534c.961,0,1.708-.214,1.922-.641l-1.281-3.737h-4.164l-1.281,3.524a2.52,2.52,0,0,0,1.922.961v.534H231.3v-.534a2.377,2.377,0,0,0,2.029-.747c.534-1.388,1.175-2.883,1.815-4.592.854-2.242,1.708-4.485,2.136-5.873a3.174,3.174,0,0,0,.214-1.281h2.456a6.3,6.3,0,0,0,.214,1.495c.641,2.136,1.281,3.844,1.815,5.553.427,1.388.961,2.776,1.6,4.485.214.534,1.068.854,1.922.854v.534Zm-5.98-5.98-1.281-4.164-.214-.961h-.107l-.32.961-1.495,4.164h3.417Z" transform="translate(-41.766 -7.693)"/>
      <path id="Path_2374" data-name="Path 2374" class="cls-1" d="M260.529,20.827h-2.136c-2.029,0-2.136.107-3.31-1.388-1.388-1.815-2.136-2.99-2.776-3.844h-2.029v3.524c.214.641,1.281.961,2.242,1.068v.534H245.9v-.534c.961,0,1.922-.214,2.136-.961V9.295c-.214-.427-1.175-.747-2.136-.747V7.907c2.242,0,3.631-.107,5.98-.107,3.31,0,4.805,1.068,4.805,3.31a4.068,4.068,0,0,1-2.563,3.417l2.776,3.737a9.193,9.193,0,0,0,1.495,1.495,7.14,7.14,0,0,0,2.029.534Zm-8.97-12.173h-1.281v6.086h1.495c2.029,0,2.563-1.388,2.563-3.417A2.668,2.668,0,0,0,251.559,8.654Z" transform="translate(-40.776 -7.693)"/>
      <path id="Path_2375" data-name="Path 2375" class="cls-1" d="M272.261,8.434a2.755,2.755,0,0,0-2.349,1.495l-3.31,5.339v3.737c.427.961,1.388,1.068,2.349,1.068v.534H262.01v-.534c.961,0,2.136-.214,2.349-.747V15.481l-3.31-5.659A2.653,2.653,0,0,0,258.7,8.434V7.9h6.193v.534a2.754,2.754,0,0,0-1.708.534l2.99,5.232,2.99-5.125a2.34,2.34,0,0,0-1.708-.641V7.9h4.805v.534Z" transform="translate(-39.908 -7.686)"/>
      <path id="Path_2376" data-name="Path 2376" class="cls-1" d="M60.847,45.575H53.8l.107-.534a3.014,3.014,0,0,0,2.136-.747l2.349-11.105c-.107-.427-1.175-.747-2.136-.747l.107-.427c2.563-.107,4.271-.214,6.086-.214,4.378,0,6.727,2.242,6.727,5.659A7.969,7.969,0,0,1,60.847,45.575Zm.534-13.027H60.42L57.964,44.293a5.417,5.417,0,0,0,2.669.641c4.271,0,6.3-3.2,6.3-7.047C67.041,34.363,64.905,32.547,61.381,32.547Z" transform="translate(-53.8 -6.066)"/>
      <path id="Path_2377" data-name="Path 2377" class="cls-1" d="M74.212,43.159c-1.281,1.495-2.349,2.563-3.524,2.563-.427,0-.641-.641-.641-1.388a6.506,6.506,0,0,1,.32-1.815l.961-3.844a10.3,10.3,0,0,0,.214-1.281c0-.107,0-.214-.107-.214-.32,0-.854.641-1.708,1.815l-.427-.32c1.175-1.708,2.136-2.563,3.1-2.563.427,0,.641.641.641,1.281a1.817,1.817,0,0,1-.107.747l-1.281,4.912c0,.214-.107.534-.107.747,0,.32.107.641.32.641s.961-.747,1.709-1.708Zm-1.068-9.824a1.068,1.068,0,1,1,1.068-1.068A1.07,1.07,0,0,1,73.144,33.336Z" transform="translate(-52.749 -6.107)"/>
      <path id="Path_2378" data-name="Path 2378" class="cls-1" d="M83.9,36.441l-.214.854H81.549a6.187,6.187,0,0,1,.427,1.388A4.065,4.065,0,0,1,79.52,42.42c-1.175.641-1.922.854-1.922,1.6,0,.534.32.854,1.388,1.388l1.175.534c1.175.534,1.6,1.175,1.6,2.136,0,1.175-1.815,2.776-5.019,2.776-2.883,0-3.844-1.281-3.844-2.029,0-1.068.961-1.815,3.951-2.99a1.851,1.851,0,0,1-.534-1.281c0-.214.641-.854,1.068-1.388a3.115,3.115,0,0,1-2.029-2.99,4.193,4.193,0,0,1,1.708-3.1A4.962,4.962,0,0,1,79.947,35.8a1.768,1.768,0,0,1,1.281.534H83.9ZM78.986,47.225l-2.136-1.175c-1.815.854-2.669,1.815-2.669,2.67,0,.534.854,1.495,2.563,1.495,1.922,0,3.31-1.175,3.31-1.708C80.161,47.973,79.841,47.759,78.986,47.225ZM78.88,36.547c-.854,0-2.136,1.708-2.136,3.737,0,1.175.534,2.029,1.281,2.029.961,0,2.242-1.708,2.242-3.844C80.268,37.295,79.627,36.547,78.88,36.547Z" transform="translate(-52.505 -5.795)"/>
      <path id="Path_2379" data-name="Path 2379" class="cls-1" d="M88.112,43.159c-1.281,1.495-2.349,2.563-3.524,2.563-.427,0-.641-.641-.641-1.388a6.506,6.506,0,0,1,.32-1.815l.961-3.844a10.3,10.3,0,0,0,.214-1.281c0-.107,0-.214-.107-.214-.32,0-.854.641-1.708,1.815l-.427-.32c1.175-1.708,2.136-2.563,3.1-2.563.427,0,.641.641.641,1.281a1.817,1.817,0,0,1-.107.747l-1.281,4.912c0,.214-.107.534-.107.747,0,.32.107.641.32.641s.961-.747,1.708-1.708Zm-.961-9.824a1.068,1.068,0,1,1,1.068-1.068A1.07,1.07,0,0,1,87.151,33.336Z" transform="translate(-51.807 -6.107)"/>
      <path id="Path_2380" data-name="Path 2380" class="cls-1" d="M94.446,36.349l-.214.854H91.99l-1.068,5.659c0,.214-.107.747-.107.854q0,.641.32.641a6.892,6.892,0,0,0,2.136-1.922l.427.32c-1.388,1.708-2.563,2.776-3.737,2.776-.427,0-.747-.641-.747-1.388a12.331,12.331,0,0,1,.214-1.708l.961-5.339L89,37.2l.107-.427A6.2,6.2,0,0,0,92.31,34h.427L92.1,36.349Z" transform="translate(-51.413 -5.917)"/>
      <path id="Path_2381" data-name="Path 2381" class="cls-1" d="M103.5,42.841c-1.281,1.495-2.349,2.563-3.524,2.563-.427,0-.641-.641-.641-1.388l.534-2.456c-1.708,2.136-3.524,3.844-4.7,3.844-.32,0-1.068-.641-1.068-2.242a6.625,6.625,0,0,1,1.922-4.7,8.26,8.26,0,0,1,5.873-2.563h.641l-1.495,7.047c0,.214-.107.641-.107.747,0,.32,0,.534.214.534a5.664,5.664,0,0,0,1.815-1.708Zm-2.67-5.446a2.082,2.082,0,0,0-.854-.107,4.957,4.957,0,0,0-2.136.427,5.8,5.8,0,0,0-1.922,4.805c0,1.281.32,1.6.534,1.6.427,0,2.029-1.6,3.524-3.524Z" transform="translate(-51.068 -5.788)"/>
      <path id="Path_2382" data-name="Path 2382" class="cls-1" d="M108.271,30.6l-2.563,12.6c0,.214-.107.747-.107.854,0,.32.107.641.32.641a7.1,7.1,0,0,0,1.815-1.708l.427.32c-1.281,1.495-2.456,2.669-3.524,2.669-.427,0-.641-.641-.641-1.388a12.331,12.331,0,0,1,.214-1.708l1.922-9.5a3.005,3.005,0,0,0,.107-.854c0-.427-.214-.534-.747-.534-.214,0-.534.107-.747.107l.107-.534,3.1-.854h.32Z" transform="translate(-50.396 -6.147)"/>
      <path id="Path_2383" data-name="Path 2383" class="cls-1" d="M130.546,32l-.107.427a2.565,2.565,0,0,0-2.029.747L126.061,44.28c.107.427,1.068.747,2.029.747l-.107.534H122.11l.107-.534a2.565,2.565,0,0,0,2.029-.747l1.068-5.125h-7.795l-1.068,5.125c.107.427,1.068.747,2.029.747l-.107.534H112.5l.107-.534a2.565,2.565,0,0,0,2.029-.747l2.349-11.105c-.107-.427-1.068-.747-2.029-.747l.107-.427h5.873l-.107.427a2.565,2.565,0,0,0-2.029.747l-1.068,4.912h7.795l1.068-4.912c-.107-.427-1.068-.747-2.029-.747l.107-.427h5.873Z" transform="translate(-49.82 -6.052)"/>
      <path id="Path_2384" data-name="Path 2384" class="cls-1" d="M138.637,42.854c-1.281,1.495-2.349,2.563-3.524,2.563-.427,0-.641-.641-.641-1.388a30.36,30.36,0,0,1,.641-3.1c-1.922,2.456-3.844,4.485-5.019,4.485-.32,0-.961-.854-.961-1.495a5.933,5.933,0,0,1,.32-1.6l1.068-3.951c.107-.427.32-1.175.32-1.281s0-.32-.107-.32c-.32,0-.854.641-1.708,1.815l-.427-.32c1.175-1.708,2.136-2.563,3.1-2.563.427,0,.641.641.641,1.281a1.354,1.354,0,0,1-.107.641c-.534,2.242-1.175,4.7-1.388,5.553,0,.534.107.854.32.854.427,0,2.242-1.922,3.951-4.058l.854-4.058h1.6l-1.495,6.834a2.085,2.085,0,0,0-.107.747c0,.32,0,.534.32.534s.961-.747,1.815-1.708Z" transform="translate(-48.729 -5.802)"/>
      <path id="Path_2385" data-name="Path 2385" class="cls-1" d="M153.656,42.841c-1.281,1.495-2.349,2.563-3.524,2.563-.427,0-.641-.641-.641-1.388a15.213,15.213,0,0,1,.32-1.708s.854-3.524,1.068-4.378c0-.641-.107-.747-.32-.747-.427,0-2.136,1.922-3.844,3.951l-.961,4.164h-1.6s1.495-6.407,1.6-7.261c0-.641-.107-.747-.32-.747-.427,0-2.136,1.922-3.844,3.951l-.854,4.164h-1.6l1.388-6.941a11.036,11.036,0,0,0,.32-1.281c0-.107,0-.214-.107-.214-.32,0-.854.641-1.709,1.815l-.427-.32c1.175-1.708,2.136-2.563,3.1-2.563.427,0,.641.641.641,1.281a1.817,1.817,0,0,1-.107.747l-.534,2.349c1.922-2.242,3.737-4.271,4.805-4.271.32,0,.961.854.961,1.495a5.933,5.933,0,0,1-.32,1.6l-.32,1.175c1.922-2.242,3.63-4.271,4.805-4.271.32,0,.961.854.961,1.495a5.934,5.934,0,0,1-.32,1.6L151.2,43.054c0,.214-.107.641-.107.747,0,.427,0,.534.32.534a7.1,7.1,0,0,0,1.815-1.708Z" transform="translate(-48.051 -5.788)"/>
      <path id="Path_2386" data-name="Path 2386" class="cls-1" d="M162.9,42.841c-1.281,1.495-2.349,2.563-3.524,2.563-.427,0-.641-.641-.641-1.388l.534-2.456c-1.709,2.136-3.524,3.844-4.7,3.844-.32,0-1.068-.641-1.068-2.242a6.625,6.625,0,0,1,1.922-4.7,8.26,8.26,0,0,1,5.873-2.563h.641l-1.495,7.047c0,.214-.107.641-.107.747,0,.32,0,.534.214.534a5.664,5.664,0,0,0,1.815-1.708Zm-2.669-5.446a2.082,2.082,0,0,0-.854-.107,4.957,4.957,0,0,0-2.136.427,5.8,5.8,0,0,0-1.922,4.805c0,1.281.32,1.6.534,1.6.427,0,2.029-1.6,3.524-3.524Z" transform="translate(-47.04 -5.788)"/>
      <path id="Path_2387" data-name="Path 2387" class="cls-1" d="M173.037,42.847c-1.281,1.495-2.349,2.563-3.524,2.563-.427,0-.641-.641-.641-1.388a15.209,15.209,0,0,1,.32-1.708s.961-3.631,1.068-4.485c0-.534,0-.641-.32-.641-.427,0-2.349,2.029-4.058,4.058l-.747,4.058h-1.6l1.388-6.941a11.041,11.041,0,0,0,.32-1.281c0-.107,0-.214-.107-.214-.32,0-.854.641-1.708,1.815l-.427-.32c1.175-1.708,2.136-2.563,3.1-2.563.427,0,.641.641.641,1.281a1.817,1.817,0,0,1-.107.747l-.534,2.349c1.922-2.242,3.844-4.378,5.019-4.378.32,0,.854.854.854,1.495a5.934,5.934,0,0,1-.32,1.6l-1.068,3.951a2.654,2.654,0,0,0-.107.854c0,.32,0,.534.32.534a7.1,7.1,0,0,0,1.815-1.708Z" transform="translate(-46.396 -5.795)"/>
      <path id="Path_2388" data-name="Path 2388" class="cls-1" d="M178.012,43.159c-1.281,1.495-2.349,2.563-3.524,2.563-.427,0-.641-.641-.641-1.388a6.506,6.506,0,0,1,.32-1.815l.961-3.844a10.3,10.3,0,0,0,.214-1.281c0-.107,0-.214-.107-.214-.32,0-.854.641-1.708,1.815l-.427-.32c1.175-1.708,2.136-2.563,3.1-2.563.427,0,.641.641.641,1.281a1.817,1.817,0,0,1-.107.747l-1.281,4.912c0,.214-.107.534-.107.747,0,.32.107.641.32.641s.961-.747,1.708-1.708Zm-.961-9.824a1.068,1.068,0,1,1,1.068-1.068A1.07,1.07,0,0,1,177.051,33.336Z" transform="translate(-45.711 -6.107)"/>
      <path id="Path_2389" data-name="Path 2389" class="cls-1" d="M184.346,36.356l-.214.854H181.89l-1.068,5.659c0,.214-.107.747-.107.854q0,.641.32.641a6.892,6.892,0,0,0,2.136-1.922l.427.32c-1.388,1.708-2.563,2.776-3.737,2.776-.427,0-.747-.641-.747-1.388a12.335,12.335,0,0,1,.214-1.708l.961-5.339H178.9l.107-.427a6.2,6.2,0,0,0,3.2-2.776h.427L182,36.249h2.349Z" transform="translate(-45.318 -5.924)"/>
      <path id="Path_2390" data-name="Path 2390" class="cls-1" d="M189.012,43.159c-1.281,1.495-2.349,2.563-3.524,2.563-.427,0-.641-.641-.641-1.388a6.506,6.506,0,0,1,.32-1.815l.961-3.844a10.3,10.3,0,0,0,.214-1.281c0-.107,0-.214-.107-.214-.32,0-.854.641-1.709,1.815l-.427-.32c1.175-1.708,2.136-2.563,3.1-2.563.427,0,.641.641.641,1.281a1.817,1.817,0,0,1-.107.747l-1.281,4.912c0,.214-.107.534-.107.747,0,.32.107.641.32.641s.961-.747,1.708-1.708Zm-.961-9.824a1.068,1.068,0,1,1,1.068-1.068A1.07,1.07,0,0,1,188.051,33.336Z" transform="translate(-44.966 -6.107)"/>
      <path id="Path_2391" data-name="Path 2391" class="cls-1" d="M191.508,41.032v.854c0,1.495.534,2.456,1.6,2.456.747,0,1.6-.641,2.563-1.815l.32.32c-1.388,1.708-2.883,2.563-3.951,2.563-1.388,0-2.242-1.388-2.242-3.31a7,7,0,0,1,1.815-4.485,4.544,4.544,0,0,1,3.2-1.815,1.652,1.652,0,0,1,1.815,1.708C196.527,38.79,194.819,40.178,191.508,41.032Zm1.922-4.271a5.9,5.9,0,0,0-1.922,3.737,9.129,9.129,0,0,0,3.417-1.708c0-.107.107-.32.107-.427C194.925,37.508,194.819,36.761,193.431,36.761Z" transform="translate(-44.579 -5.795)"/>
      <path id="Path_2392" data-name="Path 2392" class="cls-1" d="M202.066,38.149a2.825,2.825,0,0,0-2.029-1.281h-.214a1.736,1.736,0,0,0-.534,1.175,1.53,1.53,0,0,0,.427,1.068c.534.641,1.068,1.175,1.495,1.6a2.39,2.39,0,0,1,.854,1.6,3.534,3.534,0,0,1-3.631,3.1,2.034,2.034,0,0,1-2.136-1.388c0-.32.641-.854,1.068-1.068a3.085,3.085,0,0,0,2.456,1.6.642.642,0,0,0,.427-.107,1.563,1.563,0,0,0,.641-1.175c0-.641-.854-1.281-1.6-2.136s-1.281-1.388-1.281-2.242c0-1.388,1.815-3.1,3.417-3.1,1.175,0,1.815.641,1.815,1.175A4.1,4.1,0,0,1,202.066,38.149Z" transform="translate(-44.138 -5.795)"/>
      <path id="Path_2393" data-name="Path 2393" class="cls-1" d="M218.453,41.5l-.854,4.058h-11l.107-.534a3.464,3.464,0,0,0,2.563-.961l2.349-10.892c-.107-.427-1.068-.747-2.029-.747L209.7,32h6.193l-.107.427a3.114,3.114,0,0,0-2.242.747L211.085,44.6l3.951-.107c1.495,0,2.67-1.281,3.1-2.99Z" transform="translate(-43.44 -6.052)"/>
      <path id="Path_2394" data-name="Path 2394" class="cls-1" d="M228,42.841c-1.281,1.495-2.349,2.563-3.524,2.563-.427,0-.641-.641-.641-1.388l.534-2.456c-1.708,2.136-3.524,3.844-4.7,3.844-.32,0-1.068-.641-1.068-2.242a6.625,6.625,0,0,1,1.922-4.7,8.26,8.26,0,0,1,5.873-2.563h.641l-1.495,7.047c0,.214-.107.641-.107.747,0,.32,0,.534.214.534a5.664,5.664,0,0,0,1.815-1.708Zm-2.776-5.446a2.082,2.082,0,0,0-.854-.107,4.957,4.957,0,0,0-2.136.427,5.8,5.8,0,0,0-1.922,4.805c0,1.281.32,1.6.534,1.6.427,0,2.029-1.6,3.524-3.524Z" transform="translate(-42.627 -5.788)"/>
      <path id="Path_2395" data-name="Path 2395" class="cls-1" d="M235.027,43.52c-1.281,1.6-2.563,2.456-3.951,2.456a4.048,4.048,0,0,1-2.776-1.281l2.349-11.425a3,3,0,0,0,.107-.854c0-.427-.214-.534-.747-.534-.214,0-.534.107-.747.107l.107-.534,3.1-.854h.32l-1.815,9.076c1.922-2.242,3.631-3.31,4.164-3.31.641,0,1.495,1.495,1.495,3.417A7.51,7.51,0,0,1,235.027,43.52Zm-1.068-5.873c-.32,0-1.6,1.068-3.2,2.99l-.747,3.524a4.119,4.119,0,0,0,2.67.854c1.068-.747,2.136-2.883,2.136-5.446C234.814,38.181,234.386,37.647,233.959,37.647Z" transform="translate(-41.969 -6.147)"/>
      <path id="Path_2396" data-name="Path 2396" class="cls-1" d="M243.293,43.054c-1.495,1.815-2.99,2.456-3.737,2.456-1.175,0-2.456-1.388-2.456-3.737a5.68,5.68,0,0,1,1.281-3.417,6.044,6.044,0,0,1,3.737-2.456c1.175,0,2.456,1.388,2.456,3.737A5.68,5.68,0,0,1,243.293,43.054Zm-1.922-6.193c-.854,0-2.563,1.922-2.563,4.805,0,2.029.747,2.99,1.6,2.99.961,0,2.563-1.922,2.563-4.912C242.973,37.822,242.225,36.861,241.371,36.861Z" transform="translate(-41.372 -5.788)"/>
      <path id="Path_2397" data-name="Path 2397" class="cls-1" d="M252.034,38.142h-.214a1.681,1.681,0,0,0-1.281-.427c-.534,0-1.922,2.349-2.029,2.99l-.961,4.7h-1.6l1.388-6.941a6.129,6.129,0,0,0,.107-1.281c0-.107,0-.214-.107-.214-.32,0-.854.641-1.708,1.815l-.427-.32c1.175-1.708,2.029-2.563,3.1-2.563.427,0,.641.641.641,1.281a1.817,1.817,0,0,1-.107.747l-.214,1.175c1.175-2.029,2.349-2.883,3.1-3.1a2.551,2.551,0,0,1,1.495.534Z" transform="translate(-40.823 -5.788)"/>
      <path id="Path_2398" data-name="Path 2398" class="cls-1" d="M261.1,42.841c-1.281,1.495-2.349,2.563-3.524,2.563-.427,0-.641-.641-.641-1.388l.534-2.456c-1.708,2.136-3.524,3.844-4.7,3.844-.32,0-1.068-.641-1.068-2.242a6.625,6.625,0,0,1,1.922-4.7,8.261,8.261,0,0,1,5.873-2.563h.641l-1.495,7.047c0,.214-.107.641-.107.747,0,.32,0,.534.214.534a5.663,5.663,0,0,0,1.815-1.708Zm-2.669-5.446a2.081,2.081,0,0,0-.854-.107,4.957,4.957,0,0,0-2.136.427,5.8,5.8,0,0,0-1.922,4.805c0,1.281.32,1.6.534,1.6.427,0,2.029-1.6,3.524-3.524Z" transform="translate(-40.382 -5.788)"/>
      <path id="Path_2399" data-name="Path 2399" class="cls-1" d="M266.946,36.356l-.214.854H264.49l-1.068,5.659c0,.214-.107.747-.107.854q0,.641.32.641a6.891,6.891,0,0,0,2.136-1.922l.427.32c-1.388,1.708-2.563,2.776-3.737,2.776-.427,0-.747-.641-.747-1.388a12.326,12.326,0,0,1,.214-1.708l.961-5.339H261.5l.107-.427a6.2,6.2,0,0,0,3.2-2.776h.427l-.641,2.349h2.349Z" transform="translate(-39.718 -5.924)"/>
      <path id="Path_2400" data-name="Path 2400" class="cls-1" d="M273.093,43.054c-1.495,1.815-2.99,2.456-3.737,2.456-1.175,0-2.456-1.388-2.456-3.737a5.68,5.68,0,0,1,1.281-3.417,6.044,6.044,0,0,1,3.737-2.456c1.175,0,2.456,1.388,2.456,3.737A4.6,4.6,0,0,1,273.093,43.054Zm-1.922-6.193c-.854,0-2.563,1.922-2.563,4.805,0,2.029.747,2.99,1.6,2.99.961,0,2.563-1.922,2.563-4.912C272.773,37.822,272.025,36.861,271.171,36.861Z" transform="translate(-39.352 -5.788)"/>
      <path id="Path_2401" data-name="Path 2401" class="cls-1" d="M281.834,38.142h-.214a1.681,1.681,0,0,0-1.281-.427c-.534,0-1.922,2.349-2.029,2.99l-.961,4.7h-1.6l1.388-6.941a6.128,6.128,0,0,0,.107-1.281c0-.107,0-.214-.107-.214-.32,0-.854.641-1.708,1.815l-.427-.32c1.175-1.708,2.029-2.563,3.1-2.563.427,0,.641.641.641,1.281a1.817,1.817,0,0,1-.107.747l-.214,1.175c1.175-2.029,2.349-2.883,3.1-3.1a2.551,2.551,0,0,1,1.495.534Z" transform="translate(-38.803 -5.788)"/>
      <path id="Path_2402" data-name="Path 2402" class="cls-1" d="M290.517,38.67c-.534,1.281-1.6,3.844-2.563,5.873-1.708,3.31-3.844,6.3-6.3,6.3a.872.872,0,0,1-.854-.961,1.419,1.419,0,0,1,.854-1.068,3.294,3.294,0,0,0,1.922.534c.534-.214,1.922-.961,3.1-3.737a17.274,17.274,0,0,0-1.388-7.795.8.8,0,0,0-.747-.641c-.214,0-1.068.32-1.068,1.815V39.2h-.427V38.67c0-1.922,1.281-2.67,2.136-2.67a1.68,1.68,0,0,1,1.495.747,13.34,13.34,0,0,1,1.388,6.834,15.945,15.945,0,0,0,1.708-6.514c0-.961.427-1.068.747-1.068.534,0,.747.214.747.641C291.051,37.068,290.837,37.815,290.517,38.67Z" transform="translate(-38.409 -5.781)"/>
    </g>
  </g>
</svg>
